
THE DUST BOWL
Premieres November 18 and 19, 2012
8:00ΓÇô10:00 p.m. ET on PBS

CHECK LOCAL LISTINGS

THE DUST BOWL chronicles the worst man-made ecological disaster in American history, in which the frenzied wheat boom of the "Great Plow-Up," followed by a decade-long drought during the 1930s nearly swept away the breadbasket of the nation. Vivid interviews with twenty-six survivors of those hard times, combined with dramatic photographs and seldom seen movie footage, bring to life stories of incredible human suffering and equally incredible human perseverance. It is also a morality tale about our relationship to the land that sustains usΓÇöa lesson we ignore at our peril.																													Enjoy and please share.																																		TTLTTLTTLTTLTTLTTLTTLTTLTTLTTLTTLTTLTTLTTLTTLTTLTTLTTL																														The_Dust_Bowl_(part 1)_720p.HDTV.x264_2012-11-18_TTL.mkv
Format                           : Matroska
File size                        : 2.76 GiB
Duration                         : 1h 51mn
Overall bit rate                 : 3 559 Kbps
Writing application              : HandBrake 0.9.5
Writing library                  : libmkv 0.6.4.1

Video
ID                               : 1
Format                           : AVC
Format/Info                      : Advanced Video Codec
Format profile                   : High@L3.1
Format settings, CABAC           : Yes
Format settings, ReFrames        : 4 frames
Muxing mode                      : Container profile=Unknown@3.1
Codec ID                         : V_MPEG4/ISO/AVC
Duration                         : 1h 52mn
Bit rate                         : 3 264 Kbps
Nominal bit rate                 : 3 330 Kbps
Width                            : 1 280 pixels
Height                           : 720 pixels
Display aspect ratio             : 16:9
Frame rate mode                  : Variable
Frame rate                       : 28.476 fps
Resolution                       : 8 bits
Colorimetry                      : 4:2:0
Scan type                        : Progressive
Bits/(Pixel*Frame)               : 0.124
Stream size                      : 2.58 GiB (93%)
Writing library                  : x264 core 112

Audio                            : English
ID                               : 2
Format                           : AC-3
Format/Info                      : Audio Coding 3
Codec ID                         : A_AC3
Duration                         : 1h 51mn
Bit rate mode                    : Constant
Bit rate                         : 224 Kbps
Channel(s)                       : 2 channels
Channel positions                : L R
Sampling rate                    : 48.0 KHz
Stream size                      : 178 MiB (6%)

														